HIERARCHY
ROOT Pelvis
{
	OFFSET 0.000000 0.000000 0.000000
	CHANNELS 6 Xposition Yposition Zposition Xrotation Yrotation Zrotation
	JOINT LeftUpLeg_virtual
	{
		OFFSET 0.000000 0.000000 0.000000
		CHANNELS 3 Xrotation Yrotation Zrotation
		JOINT LeftUpLeg
		{
			OFFSET 18.735201 -5.666702 -4.541200
			CHANNELS 3 Xrotation Yrotation Zrotation
			JOINT LeftLeg
			{
				OFFSET -0.021200 -31.938179 0.493100
				CHANNELS 3 Xrotation Yrotation Zrotation
				JOINT LeftFoot
				{
					OFFSET 0.021200 -31.938179 -4.336299
					CHANNELS 3 Xrotation Yrotation Zrotation
					JOINT LeftToeBase
					{
						OFFSET 0.943001 -26.722000 15.023500
						CHANNELS 3 Xrotation Yrotation Zrotation
						End Site
						{
							OFFSET 0 0 0
						}
					}
				}
			}
		}
	}
	JOINT RightUpLeg_virtual
	{
		OFFSET 0.000000 0.000000 0.000000
		CHANNELS 3 Xrotation Yrotation Zrotation
		JOINT RightUpLeg
		{
			OFFSET -18.735201 -5.666702 -4.541200
			CHANNELS 3 Xrotation Yrotation Zrotation
			JOINT RightLeg
			{
				OFFSET 0.018946 -31.938133 0.493100
				CHANNELS 3 Xrotation Yrotation Zrotation
				JOINT RightFoot
				{
					OFFSET -0.018946 -31.938126 -4.336299
					CHANNELS 3 Xrotation Yrotation Zrotation
					JOINT RightToeBase
					{
						OFFSET -0.943001 -26.722004 15.023500
						CHANNELS 3 Xrotation Yrotation Zrotation
						End Site
						{
							OFFSET 0 0 0
						}
					}
				}
			}
		}
	}
	JOINT Hips_virtual
	{
		OFFSET 0.000000 0.000000 0.000000
		CHANNELS 3 Xrotation Yrotation Zrotation
		JOINT Hips
		{
			OFFSET -0.000000 -0.000000 -0.000000
			CHANNELS 3 Xrotation Yrotation Zrotation
			JOINT Spine
			{
				OFFSET 0.000000 10.199997 -0.299500
				CHANNELS 3 Xrotation Yrotation Zrotation
				JOINT Spine1
				{
					OFFSET 0.000000 11.900002 -1.516600
					CHANNELS 3 Xrotation Yrotation Zrotation
					JOINT Spine2
					{
						OFFSET 0.000000 13.600006 -2.842500
						CHANNELS 3 Xrotation Yrotation Zrotation
						JOINT Neck_virtual
						{
							OFFSET 0.000000 0.000000 0.000000
							CHANNELS 3 Xrotation Yrotation Zrotation
							JOINT Neck
							{
								OFFSET 0.000000 9.624100 -2.890100
								CHANNELS 3 Xrotation Yrotation Zrotation
								JOINT Head
								{
									OFFSET 0.000000 14.068802 -1.351900
									CHANNELS 3 Xrotation Yrotation Zrotation
									End Site
									{
										OFFSET 0 0 0
									}
								}
							}
						}
						JOINT LeftShoulder_virtual
						{
							OFFSET 0.000000 0.000000 0.000000
							CHANNELS 3 Xrotation Yrotation Zrotation
							JOINT LeftShoulder
							{
								OFFSET 15.263000 10.923401 -0.547700
								CHANNELS 3 Xrotation Yrotation Zrotation
								JOINT LeftArm
								{
									OFFSET 25.438599 -2.830597 -13.032500
									CHANNELS 3 Xrotation Yrotation Zrotation
									JOINT LeftForeArm
									{
										OFFSET 29.960503 0.000000 0.000000
										CHANNELS 3 Xrotation Yrotation Zrotation
										JOINT LeftHand
										{
											OFFSET 27.849251 0.000000 0.000000
											CHANNELS 3 Xrotation Yrotation Zrotation
											End Site
											{
												OFFSET 0 0 0
											}
										}
									}
								}
							}
						}
						JOINT RightShoulder_virtual
						{
							OFFSET 0.000000 0.000000 0.000000
							CHANNELS 3 Xrotation Yrotation Zrotation
							JOINT RightShoulder
							{
								OFFSET -15.263000 10.923401 -0.547700
								CHANNELS 3 Xrotation Yrotation Zrotation
								JOINT RightArm
								{
									OFFSET -25.438599 -2.830597 -13.032500
									CHANNELS 3 Xrotation Yrotation Zrotation
									JOINT RightForeArm
									{
										OFFSET -29.960503 0.000000 0.000000
										CHANNELS 3 Xrotation Yrotation Zrotation
										JOINT RightHand
										{
											OFFSET -27.849251 0.000000 0.000000
											CHANNELS 3 Xrotation Yrotation Zrotation
											End Site
											{
												OFFSET 0 0 0
											}
										}
									}
								}
							}
						}
					}
				}
			}
		}
	}
}
MOTION
Frames: 6
Frame Time: 0.03333333
-1.035484 89.827232 2.756191 0.000000 0.000000 0.000000 5.048374 -15.557752 0.313358 -39.841084 1.353353 11.205599 35.806768 4.186837 1.508225 0.117978 0.612164 -7.710151 0.000000 0.000000 0.000000 5.048374 -15.557752 0.313358 -13.249289 -10.206329 -14.508155 32.034137 -5.746435 1.668691 -20.404787 -3.421309 13.642421 0.000000 0.000000 0.000000 5.048374 -15.557752 0.313358 0.000000 0.000000 0.000000 23.100163 4.231875 -0.410050 3.699124 1.240172 -0.846330 0.000000 0.000000 0.000000 3.692586 1.312477 -0.857369 -2.535778 0.264703 0.435528 0.000000 0.000000 0.000000 3.692586 1.312477 -0.857369 7.811594 -20.950962 9.744737 -33.643012 -3.124194 -85.445619 0.000003 -42.998315 -4.823203 0.000000 0.000000 0.000000 3.692586 1.312477 -0.857369 13.917695 27.239896 -23.496416 -43.128567 -5.411295 84.812242 0.000046 58.104604 5.767223 0.000000 0.000000 0.000000 
-1.018426 89.828842 2.733488 0.000000 0.000000 0.000000 5.033040 -15.815580 0.337011 -39.759508 1.328442 11.261392 35.886357 4.429072 1.475205 0.025125 0.625014 -7.760649 0.000000 0.000000 0.000000 5.033040 -15.815580 0.337011 -13.464188 -10.220365 -14.581030 32.129599 -5.444254 1.603213 -20.357541 -3.399451 13.590274 0.000000 0.000000 0.000000 5.033040 -15.815580 0.337011 0.000000 -0.000001 0.000000 23.099348 4.268271 -0.411023 3.697010 1.270043 -0.848465 0.000000 0.000000 0.000000 3.690616 1.342609 -0.860968 -2.567436 0.371926 0.387135 0.000000 0.000000 0.000000 3.690616 1.342609 -0.860968 7.686574 -20.788213 9.327154 -33.679635 -3.519092 -85.304685 0.000001 -43.357262 -4.333579 0.000000 0.000000 0.000000 3.690616 1.342609 -0.860968 13.325461 26.974534 -22.684445 -43.270669 -4.158110 84.402669 0.000000 57.768053 5.603176 0.000000 0.000000 0.000000 
-0.998110 89.823235 2.695387 0.000000 0.000000 0.000000 5.037582 -16.141861 0.372852 -39.710833 1.366959 11.335795 35.995664 4.674474 1.476791 -0.086025 0.639827 -7.826665 0.000000 0.000000 0.000000 5.037582 -16.141861 0.372852 -13.756885 -10.120580 -14.685127 32.297977 -5.146187 1.614970 -20.311613 -3.368866 13.503312 0.000000 0.000000 0.000000 5.037582 -16.141861 0.372852 0.000000 0.000002 0.000000 23.105915 4.322966 -0.407534 3.678786 1.304123 -0.850522 0.000000 0.000000 0.000000 3.672137 1.375555 -0.864477 -2.593582 0.478241 0.336220 0.000000 0.000000 0.000000 3.672137 1.375555 -0.864477 7.549160 -20.634825 8.867787 -33.753979 -3.967027 -84.994034 0.000013 -43.669641 -3.983658 0.000000 0.000000 0.000000 3.672137 1.375555 -0.864477 12.767475 26.735602 -21.908216 -43.497749 -2.834418 83.951003 0.000025 57.335736 5.420084 0.000000 0.000000 0.000000 
-0.977073 89.815239 2.648781 0.000000 0.000000 0.000000 5.042660 -16.511200 0.417210 -39.642206 1.343626 11.425513 36.120533 5.007149 1.425781 -0.207152 0.653470 -7.898584 0.000000 0.000000 0.000000 5.042660 -16.511200 0.417210 -14.132250 -10.132378 -14.813727 32.498477 -4.694686 1.565963 -20.266150 -3.332720 13.397186 0.000000 0.000000 0.000000 5.042660 -16.511200 0.417210 0.000000 0.000000 0.000000 23.110206 4.376391 -0.406931 3.668311 1.344951 -0.853238 0.000000 0.000000 0.000000 3.661470 1.415975 -0.869073 -2.619861 0.586912 0.283559 0.000000 0.000000 0.000000 3.661470 1.415975 -0.869073 7.406731 -20.484203 8.380336 -33.834442 -4.568838 -84.564114 0.000005 -43.951755 -3.708012 0.000000 0.000000 0.000000 3.661470 1.415975 -0.869073 12.246191 26.525444 -21.177147 -43.721363 -1.487021 83.438615 -0.000018 56.901725 5.282968 0.000000 0.000000 0.000000 
-0.955971 89.805214 2.591848 0.000000 0.000000 0.000000 5.046407 -16.929196 0.472563 -39.565182 1.348289 11.530178 36.252493 5.355232 1.373957 -0.336675 0.670254 -7.977156 0.000000 0.000000 0.000000 5.046407 -16.929196 0.472563 -14.568447 -10.149406 -14.965583 32.742260 -4.176154 1.513529 -20.220570 -3.289296 13.269915 0.000000 0.000000 0.000000 5.046407 -16.929196 0.472563 0.000000 0.000000 0.000000 23.117793 4.432759 -0.418330 3.663210 1.389911 -0.859501 0.000000 0.000000 0.000000 3.656702 1.460840 -0.877338 -2.645417 0.699913 0.227472 0.000000 0.000000 0.000000 3.656702 1.460840 -0.877338 7.261360 -20.335582 7.874387 -33.900753 -5.314815 -84.004155 0.000006 -44.245293 -3.519555 0.000000 0.000000 0.000000 3.656702 1.460840 -0.877338 11.748302 26.342281 -20.499921 -43.948470 -0.105499 82.878738 0.000061 56.461151 5.193564 0.000000 0.000000 0.000000 
-0.935546 89.793724 2.523212 0.000000 0.000000 0.000000 5.047574 -17.397675 0.540421 -39.464727 1.332122 11.651659 36.389066 5.765372 1.287592 -0.471602 0.684742 -8.062629 0.000000 0.000000 0.000000 5.047574 -17.397675 0.540421 -15.072452 -10.191203 -15.140494 33.029156 -3.570751 1.443347 -20.173394 -3.239908 13.120069 0.000000 0.000000 0.000000 5.047574 -17.397675 0.540421 -0.000001 -0.000001 -0.000000 23.134057 4.489297 -0.430353 3.660079 1.438315 -0.872506 0.000000 0.000000 0.000000 3.655080 1.510125 -0.886327 -2.669354 0.817617 0.170155 0.000000 0.000000 0.000000 3.655080 1.510125 -0.886327 7.110211 -20.192186 7.333613 -33.920318 -6.236866 -83.284759 0.000005 -44.573114 -3.417241 0.000000 0.000000 0.000000 3.655080 1.510125 -0.886327 11.298987 26.187671 -19.871045 -44.197621 1.305967 82.266254 0.000027 56.009972 5.153720 0.000000 0.000000 0.000000 
